<?xml version="1.0" encoding="UTF-8"?>
<svg version="1.1" xmlns="http://www.w3.org/2000/svg" width="512" height="512">
<path d="M0 0 C1.42618353 1.04969102 2.84386629 2.1110992 4.25 3.1875 C4.99765625 3.74824219 5.7453125 4.30898438 6.515625 4.88671875 C7.08796875 5.31597656 7.6603125 5.74523437 8.25 6.1875 C12.40848899 4.67532218 13.80651292 2.13162141 16.0625 -1.5625 C20.3923489 -8.2745706 24.50320911 -13.29028901 32.25 -15.8125 C39.86204393 -16.65070202 47.01834305 -16.65136727 53.25 -11.8125 C56.96150804 -8.33180714 59.7012535 -4.18030739 62.5625 0 C66.34779501 5.49828723 70.67809736 10.33602058 75.25 15.1875 C75.80171875 15.80367187 76.3534375 16.41984375 76.921875 17.0546875 C80.95239956 21.38450843 85.60379214 24.61177449 90.47143555 27.91992188 C104.03925863 37.14249443 104.03925863 37.14249443 106.25 45.1875 C107.17624111 52.81705303 107.10402683 59.93632004 102.25 66.1875 C97.95285062 70.76960623 92.5551157 74.15768167 87.38671875 77.671875 C85.17423346 79.15150205 85.17423346 79.15150205 83.25 81.1875 C83.69431051 81.62904513 84.13862103 82.07059027 84.59639549 82.52551556 C95.45742061 93.31999577 106.30990407 104.1229858 117.15320396 114.93526745 C122.39735891 120.16401965 127.64425906 125.38995798 132.89794922 130.60913086 C137.4824332 135.16350888 142.06143852 139.72331577 146.634215 144.28944951 C149.05077839 146.70213616 151.469817 149.1122053 153.89545822 151.51576805 C179.756511 177.16751024 179.756511 177.16751024 185.625 190.5625 C185.94605713 191.26874512 186.26711426 191.97499023 186.59790039 192.70263672 C196.11090841 214.36860314 197.09538933 238.82567263 188.9375 261.0625 C183.81023555 273.31605165 177.33917171 283.37850511 167.734375 292.53515625 C166.9187207 293.32011475 166.10306641 294.10507324 165.26269531 294.91381836 C163.60864831 296.4928129 161.93635576 298.05294798 160.24511719 299.59204102 C156.08097133 303.38177056 156.08097133 303.38177056 153.66552734 308.3137207 C153.372538 320.78352461 160.68428471 331.40860516 168.75 340.125 C179.99071612 352.38588195 184.68437962 366.73805599 184.52734375 383.26171875 C182.82214778 407.39864764 167.8486868 421.73451154 151.703125 438.0078125 C151.06565086 438.65061031 150.42817673 439.29340813 149.77138519 439.95568466 C146.40089459 443.35269356 143.02687719 446.7461585 139.65039062 450.13720703 C136.88354526 452.91740386 134.12416156 455.70469565 131.37109375 458.49853516 C128.01330323 461.90600652 124.64306324 465.30069583 121.26387787 468.68694687 C119.99196013 469.96550936 118.72424306 471.24826708 117.46115875 472.53555679 C103.24343277 487.01025833 89.25383583 496.45789197 68.25 496.6875 C59.69613233 496.60827085 52.14792407 495.69646627 44.25 492.1875 C43.32445312 491.78660156 42.39890625 491.38570313 41.4453125 490.97265625 C31.35448121 486.0415843 23.81674014 477.85563179 16.125 469.875 C9.58714513 463.09389309 9.58714513 463.09389309 1.25 459.1875 C-2.93186887 460.41746143 -6.18397852 462.73296573 -9.75 465.1875 C-28.91780038 476.20667027 -53.59946054 478.63730046 -74.92993164 473.02148438 C-93.43255426 467.65434589 -106.92497714 457.71429169 -120.0625 444.125 C-121.11036312 443.05699504 -122.15918822 441.98993306 -123.20898438 440.92382812 C-125.73377188 438.35576044 -128.2455376 435.77541239 -130.75 433.1875 C-142.962747 437.79782782 -153.06052614 450.79365149 -159.9375 461.5 C-164.12085845 468.00276081 -168.27177939 472.73830111 -175.75 475.1875 C-183.08005542 476.08951459 -189.54315983 475.88508869 -195.8359375 471.7890625 C-199.1472644 469.0183604 -201.38713051 465.77149068 -203.75 462.1875 C-213.03239653 448.86048625 -222.89435796 438.26857944 -236.55859375 429.35546875 C-243.17979853 424.99708284 -247.21787916 420.78386252 -249.75 413.1875 C-250.42105065 405.76193955 -250.41077498 399.26908103 -245.75 393.1875 C-241.59924341 388.67979874 -236.64376419 385.43159908 -231.5625 382.0625 C-226.45762046 378.65124638 -222.02606774 374.8428995 -217.6875 370.5 C-217.15165283 369.96552246 -216.61580566 369.43104492 -216.0637207 368.88037109 C-212.82059248 365.54602506 -210.21581215 362.1316168 -207.75 358.1875 C-209.23474333 354.70250045 -211.19524679 352.54954748 -213.92431641 349.94482422 C-214.78505768 349.11651093 -215.64579895 348.28819763 -216.53262329 347.43478394 C-217.9279982 346.1019487 -217.9279982 346.1019487 -219.3515625 344.7421875 C-220.80738493 343.33046692 -222.25965996 341.91515652 -223.7119503 340.49980354 C-227.28840324 337.0146026 -230.87159608 333.5372318 -234.48828125 330.09375 C-237.00881018 327.692508 -239.50377263 325.267112 -241.98405075 322.82434464 C-243.38700849 321.45607265 -244.81597611 320.11463321 -246.24526978 318.77389526 C-252.48635173 312.58548253 -252.48635173 312.58548253 -253.27130127 308.42332458 C-253.24169922 305.7199707 -253.24169922 305.7199707 -252.93478394 303.28462219 C-252.53948771 300.97796959 -252.53948771 300.97796959 -254.21875 298.42578125 C-257.90921104 294.56883642 -257.90921104 294.56883642 -262.78125 293.1640625 C-264.10601787 293.47422641 -265.43023054 293.78677023 -266.75390625 294.1015625 C-269.55738965 294.22226042 -270.55463809 293.28231233 -272.6875 291.5 C-289.02668834 275.25692453 -297.90591315 253.27170742 -298 230.25 C-297.98428889 201.58036335 -284.71635391 179.06580477 -264.98828125 159.23046875 C-262.68859455 156.93620661 -260.37652214 154.65478817 -258.0625 152.375 C-256.85955062 151.18211986 -255.6570744 149.98876239 -254.45507812 148.79492188 C-251.55877973 145.92028005 -248.65626275 143.05206601 -245.75 140.1875 C-249.09409519 136.77501482 -252.3430546 133.97351903 -256.3125 131.3125 C-262.60837169 126.77065986 -265.45864427 123.18404738 -266.75 115.375 C-267.13359985 109.07437246 -265.45879606 103.34409161 -261.30859375 98.5078125 C-259.5322807 96.92411171 -257.69633763 95.55780756 -255.75 94.1875 C-254.863125 93.53910156 -253.97625 92.89070313 -253.0625 92.22265625 C-251.21549315 90.87504392 -249.3606046 89.53813229 -247.49609375 88.21484375 C-242.13129248 84.25420099 -237.71086635 80.24401608 -233.75 74.875 C-233.31848633 74.30467041 -232.88697266 73.73434082 -232.44238281 73.14672852 C-230.58758467 70.68908619 -228.76810751 68.21297871 -226.984375 65.703125 C-223.27608944 60.51152522 -219.95720563 57.25656854 -213.75 55.1875 C-206.69621544 54.49237745 -200.48113017 54.68356547 -194.75 59.1875 C-192.46965507 61.68318016 -190.62692152 64.38220869 -188.75 67.1875 C-187.6332134 68.69362505 -186.50845649 70.19387977 -185.375 71.6875 C-184.5 72.85416667 -183.625 74.02083333 -182.75 75.1875 C-179.97895076 73.92133913 -177.94489736 72.62857469 -175.80615234 70.463974 C-175.25424728 69.91048279 -174.70234222 69.35699158 -174.13371277 68.78672791 C-173.54044693 68.18155838 -172.94718109 67.57638885 -172.3359375 66.95288086 C-171.38374077 65.99389389 -171.38374077 65.99389389 -170.41230774 65.01553345 C-169.03458992 63.6268623 -167.65915363 62.23592475 -166.28573608 60.84300041 C-164.10289404 58.62993168 -161.91338878 56.42365977 -159.72192383 54.21913147 C-153.49205306 47.94958638 -147.27474579 41.6676377 -141.06103516 35.38208008 C-137.25682558 31.53482422 -133.44506928 27.69517064 -129.62896729 23.8597126 C-128.18452955 22.40479384 -126.74300704 20.94697418 -125.30462646 19.48606682 C-115.17276791 9.19593974 -105.02795354 -0.85423334 -91.8125 -7.125 C-91.14500732 -7.45056885 -90.47751465 -7.7761377 -89.78979492 -8.11157227 C-60.31120443 -22.08580372 -26.50064395 -18.34062162 0 0 Z " fill="#94E6C7" transform="translate(307.75,15.8125)"/>
<path d="M0 0 C1.42618353 1.04969102 2.84386629 2.1110992 4.25 3.1875 C4.99765625 3.74824219 5.7453125 4.30898438 6.515625 4.88671875 C7.08796875 5.31597656 7.6603125 5.74523437 8.25 6.1875 C12.40848899 4.67532218 13.80651292 2.13162141 16.0625 -1.5625 C20.3923489 -8.2745706 24.50320911 -13.29028901 32.25 -15.8125 C39.86204393 -16.65070202 47.01834305 -16.65136727 53.25 -11.8125 C56.96150804 -8.33180714 59.7012535 -4.18030739 62.5625 0 C66.34779501 5.49828723 70.67809736 10.33602058 75.25 15.1875 C75.80171875 15.80367187 76.3534375 16.41984375 76.921875 17.0546875 C80.95239956 21.38450843 85.60379214 24.61177449 90.47143555 27.91992188 C104.03925863 37.14249443 104.03925863 37.14249443 106.25 45.1875 C107.17624111 52.81705303 107.10402683 59.93632004 102.25 66.1875 C97.95285062 70.76960623 92.5551157 74.15768167 87.38671875 77.671875 C85.17423346 79.15150205 85.17423346 79.15150205 83.25 81.1875 C83.69431051 81.62904513 84.13862103 82.07059027 84.59639549 82.52551556 C95.45742061 93.31999577 106.30990407 104.1229858 117.15320396 114.93526745 C122.39735891 120.16401965 127.64425906 125.38995798 132.89794922 130.60913086 C137.4824332 135.16350888 142.06143852 139.72331577 146.634215 144.28944951 C149.05077839 146.70213616 151.469817 149.1122053 153.89545822 151.51576805 C179.756511 177.16751024 179.756511 177.16751024 185.625 190.5625 C185.94605713 191.26874512 186.26711426 191.97499023 186.59790039 192.70263672 C196.11090841 214.36860314 197.09538933 238.82567263 188.9375 261.0625 C183.81023555 273.31605165 177.33917171 283.37850511 167.734375 292.53515625 C166.9187207 293.32011475 166.10306641 294.10507324 165.26269531 294.91381836 C163.60864831 296.4928129 161.93635576 298.05294798 160.24511719 299.59204102 C156.08097133 303.38177056 156.08097133 303.38177056 153.66552734 308.3137207 C153.372538 320.78352461 160.68428471 331.40860516 168.75 340.125 C179.99071612 352.38588195 184.68437962 366.73805599 184.52734375 383.26171875 C182.82214778 407.39864764 167.8486868 421.73451154 151.703125 438.0078125 C151.06565086 438.65061031 150.42817673 439.29340813 149.77138519 439.95568466 C146.40089459 443.35269356 143.02687719 446.7461585 139.65039062 450.13720703 C136.88354526 452.91740386 134.12416156 455.70469565 131.37109375 458.49853516 C128.01330323 461.90600652 124.64306324 465.30069583 121.26387787 468.68694687 C119.99196013 469.96550936 118.72424306 471.24826708 117.46115875 472.53555679 C103.24343277 487.01025833 89.25383583 496.45789197 68.25 496.6875 C59.69613233 496.60827085 52.14792407 495.69646627 44.25 492.1875 C43.32445312 491.78660156 42.39890625 491.38570313 41.4453125 490.97265625 C31.35448121 486.0415843 23.81674014 477.85563179 16.125 469.875 C9.58714513 463.09389309 9.58714513 463.09389309 1.25 459.1875 C-2.93186887 460.41746143 -6.18397852 462.73296573 -9.75 465.1875 C-28.91780038 476.20667027 -53.59946054 478.63730046 -74.92993164 473.02148438 C-93.43255426 467.65434589 -106.92497714 457.71429169 -120.0625 444.125 C-121.11036312 443.05699504 -122.15918822 441.98993306 -123.20898438 440.92382812 C-125.73377188 438.35576044 -128.2455376 435.77541239 -130.75 433.1875 C-142.962747 437.79782782 -153.06052614 450.79365149 -159.9375 461.5 C-164.12085845 468.00276081 -168.27177939 472.73830111 -175.75 475.1875 C-183.08005542 476.08951459 -189.54315983 475.88508869 -195.8359375 471.7890625 C-199.1472644 469.0183604 -201.38713051 465.77149068 -203.75 462.1875 C-213.03239653 448.86048625 -222.89435796 438.26857944 -236.55859375 429.35546875 C-243.17979853 424.99708284 -247.21787916 420.78386252 -249.75 413.1875 C-250.42105065 405.76193955 -250.41077498 399.26908103 -245.75 393.1875 C-241.59924341 388.67979874 -236.64376419 385.43159908 -231.5625 382.0625 C-226.45762046 378.65124638 -222.02606774 374.8428995 -217.6875 370.5 C-217.15165283 369.96552246 -216.61580566 369.43104492 -216.0637207 368.88037109 C-212.82059248 365.54602506 -210.21581215 362.1316168 -207.75 358.1875 C-209.23781565 354.70127869 -211.2094721 352.52070948 -213.92431641 349.8972168 C-214.78505768 349.05922043 -215.64579895 348.22122406 -216.53262329 347.35783386 C-217.9279982 346.01088188 -217.9279982 346.01088188 -219.3515625 344.63671875 C-220.313712 343.69609231 -221.27491064 342.75449237 -222.23519897 341.81196594 C-226.30645533 337.81687971 -230.38409811 333.82871349 -234.48828125 329.86743164 C-237.00202132 327.44001114 -239.49823373 324.99570646 -241.98405075 322.53971291 C-243.39201641 321.15834832 -244.81854103 319.79598244 -246.24526978 318.43400574 C-253.3120266 311.42501202 -253.3120266 311.42501202 -253.43115234 307.21801758 C-252.60396144 303.53775925 -251.93444504 302.22881092 -248.75 300.1875 C-245.5 299.5 -245.5 299.5 -241.75 300.1875 C-235.54295726 304.62487412 -230.23696044 310.56685052 -224.875 315.96484375 C-223.66009888 317.18186729 -223.66009888 317.18186729 -222.4206543 318.42347717 C-219.86138985 320.98829139 -217.3056447 323.55657948 -214.75 326.125 C-213.00413867 327.87588283 -211.25804713 329.62653613 -209.51171875 331.37695312 C-205.25514802 335.64448616 -201.00145284 339.91486866 -196.75 344.1875 C-196.06329224 343.90572906 -195.37658447 343.62395813 -194.66906738 343.33364868 C-193.76829468 342.96782684 -192.86752197 342.602005 -191.93945312 342.22509766 C-190.60001648 341.67869125 -190.60001648 341.67869125 -189.23352051 341.12124634 C-183.73620851 339.05438402 -178.56805629 339.13278887 -173.078125 341.1875 C-166.27288645 344.81696056 -162.80620066 349.80793858 -158.75 356.1875 C-156.5104821 359.26618151 -154.15751566 362.2387991 -151.75 365.1875 C-151.09515625 365.99058594 -150.4403125 366.79367187 -149.765625 367.62109375 C-142.57114754 376.03653181 -134.09904903 382.50068086 -124.75 388.375 C-119.76654482 391.59958865 -116.65177076 395.48218772 -114.75 401.1875 C-114.15118136 408.31574496 -114.94808179 413.64969084 -117.75 420.1875 C-117.75 424.9042664 -114.53890296 426.85379677 -111.34985352 430.10717773 C-110.45065186 430.99993408 -109.5514502 431.89269043 -108.625 432.8125 C-107.71226318 433.7187915 -106.79952637 434.62508301 -105.85913086 435.55883789 C-89.85903136 451.13133034 -71.97729217 459.56408588 -49.50097656 459.49243164 C-42.93053605 459.34920865 -36.99265127 458.28601837 -30.75 456.1875 C-29.71359375 455.83945312 -28.6771875 455.49140625 -27.609375 455.1328125 C-22.83807192 453.76232476 -22.83807192 453.76232476 -18.75 451.1875 C-20.02230469 450.60355469 -20.02230469 450.60355469 -21.3203125 450.0078125 C-33.26835975 444.30951304 -43.58428987 437.37692991 -53.23217773 428.29199219 C-53.86476974 427.69847836 -54.49736174 427.10496452 -55.14912319 426.49346542 C-65.31975234 416.8829937 -75.18817835 406.95621699 -85.09765625 397.078125 C-86.20171321 395.97812925 -87.30579814 394.87816157 -88.4099102 393.77822113 C-93.58837235 388.61868353 -98.76450539 383.45682351 -103.9377194 378.2920239 C-109.8680307 372.37152644 -115.80658301 366.45945467 -121.75205809 360.55418611 C-126.38283889 355.95363379 -131.0058513 351.34536605 -135.62319559 346.73132873 C-138.36703432 343.98982657 -141.11399617 341.25164785 -143.86931038 338.52167511 C-146.45482574 335.959574 -149.03049184 333.38795438 -151.59920883 330.80901527 C-152.97961862 329.42788134 -154.36987231 328.05660752 -155.76051331 326.68577576 C-163.62427013 318.7567338 -170.92192268 309.77393541 -171.07983398 298.16015625 C-170.98686318 286.23894245 -169.37802321 278.04130326 -160.75 269.1875 C-155.50378955 264.76653614 -150.51817989 261.51170911 -143.75 260.1875 C-144.6656026 258.95754051 -145.58254203 257.72857614 -146.5 256.5 C-147.04914063 255.76265625 -147.59828125 255.0253125 -148.1640625 254.265625 C-149.34602804 252.71684256 -150.59472091 251.21855543 -151.875 249.75 C-158.64313735 240.50021229 -159.32431017 230.36727869 -157.75 219.1875 C-155.0304136 210.20229406 -149.83527231 203.15280814 -141.7421875 198.43359375 C-133.56525522 194.1875 -133.56525522 194.1875 -129.75 194.1875 C-130.14832031 193.64222656 -130.54664063 193.09695312 -130.95703125 192.53515625 C-137.81502801 182.773774 -140.12170697 174.21631495 -138.75 162.1875 C-136.27730703 152.66305299 -131.20190543 144.76672877 -122.9296875 139.3359375 C-113.51253869 134.03722177 -104.35687236 132.36826039 -93.59765625 134.94140625 C-88.44260138 136.74461475 -84.25120753 139.07329247 -79.75 142.1875 C-79.36070312 141.28128906 -78.97140625 140.37507812 -78.5703125 139.44140625 C-73.63098352 128.48085743 -67.34938501 120.5016973 -55.85546875 115.84375 C-46.8723764 113.04382511 -38.4549576 113.50356394 -29.6484375 116.62890625 C-20.69143086 121.44540982 -13.67387649 128.99227276 -6.58984375 136.15234375 C-5.54939664 137.19653066 -4.50849993 138.24026976 -3.46717834 139.28358459 C-0.7551737 142.00314969 1.95076521 144.72867 4.65539551 147.45556641 C7.42736358 150.24815833 10.20515022 153.03494991 12.98242188 155.82226562 C18.41059106 161.27175046 23.83235196 166.72755319 29.25 172.1875 C30.43025074 170.41712389 31.5732154 168.61911837 32.625 166.76953125 C38.48188387 156.78748638 46.88651484 148.94870631 58.21875 145.60693359 C70.77481696 143.0142265 83.03033169 144.92895443 93.765625 151.796875 C104.85134448 159.79914933 109.14351465 170.96137728 114.25 183.1875 C114.79227904 184.46946131 115.33512087 185.75118465 115.87841797 187.03271484 C117.38322268 190.58662035 118.87156128 194.14709268 120.35031128 197.71191406 C120.94676077 199.14593393 121.54692208 200.57841597 122.15090942 202.00927734 C123.00878407 204.04688907 123.84996146 206.09067825 124.6875 208.13671875 C125.18121094 209.32612061 125.67492187 210.51552246 126.18359375 211.7409668 C127.33046983 215.44757156 127.55963549 218.33025104 127.25 222.1875 C125.6875 224.625 125.6875 224.625 123.25 226.1875 C119.6875 226.625 119.6875 226.625 116.25 226.1875 C112.72182814 223.32799878 111.49976355 219.41027341 109.88671875 215.29296875 C109.57225296 214.50916336 109.25778717 213.72535797 108.93379211 212.9178009 C107.92775323 210.4063682 106.93224625 207.89092428 105.9375 205.375 C103.38800971 198.97395157 100.82948855 192.5765231 98.25 186.1875 C97.96739319 185.48659241 97.68478638 184.78568481 97.39361572 184.0635376 C96.6120829 182.13838325 95.81836916 180.21880881 95.01953125 178.30078125 C94.57843018 177.23255127 94.1373291 176.16432129 93.68286133 175.0637207 C91.39090001 170.4630057 88.65682084 167.08847816 84.25 164.4375 C83.59 164.03015625 82.93 163.6228125 82.25 163.203125 C75.72384896 159.88906393 66.76240018 160.05760075 59.80078125 161.80078125 C53.13231743 164.7747327 48.05869607 170.61383482 45.3125 177.3125 C44.11052867 180.66650384 43.92164441 183.63743931 44.25 187.1875 C46.00489126 189.8017331 46.00489126 189.8017331 48.54858398 192.15136719 C49.00539551 192.60744858 49.46220703 193.06352997 49.93286133 193.53343201 C51.44030346 195.03162535 52.96772925 196.50755744 54.49609375 197.984375 C55.54882516 199.02336817 56.60016294 200.06377513 57.65016174 201.10552979 C60.41362052 203.8404547 63.19417122 206.55731379 65.97912598 209.27032471 C69.3640898 212.57365757 72.73018946 215.89618704 76.09735966 219.21763992 C78.71614504 221.80064473 81.3381783 224.3800153 83.97080994 226.94891357 C84.91170975 227.8703717 85.85260956 228.79182983 86.82202148 229.74121094 C87.65475082 230.55362244 88.48748016 231.36603394 89.34544373 232.20306396 C91.70546453 234.66206736 92.19249397 235.6584445 92.5625 239.0625 C92.25 242.1875 92.25 242.1875 90.6875 244.5625 C87.32944803 246.80120131 85.23042921 246.58248179 81.25 246.1875 C78.67469025 244.46514511 78.67469025 244.46514511 76.24133301 242.00042725 C74.84111656 240.60814156 74.84111656 240.60814156 73.41261292 239.18772888 C72.40040907 238.14596856 71.38853338 237.1038893 70.37695312 236.06152344 C69.29522661 234.97290838 68.2119277 233.88585384 67.12718201 232.80024719 C64.79672971 230.46122915 62.47776723 228.11157656 60.167099 225.75301361 C56.5107846 222.02106375 52.83000683 218.31389778 49.14562988 214.60968018 C43.31831264 208.74511632 37.50779194 202.86422606 31.70419168 196.97619939 C21.3183211 186.43984071 10.90919819 175.92651977 0.48658514 165.426512 C-3.16858289 161.74276065 -6.81476017 158.05040164 -10.4537735 154.35069323 C-12.72317084 152.04606648 -14.99871249 149.74757702 -17.27573967 147.45049095 C-18.32691981 146.38734772 -19.3754659 145.3215923 -20.42109871 144.25299263 C-27.70191826 136.81551102 -33.75310697 130.77057442 -44.5 129.875 C-49.24230121 129.94578062 -52.86827348 131.52204779 -56.75 134.1875 C-61.32796749 139.00641315 -63.04702157 142.86403582 -63.125 149.5 C-63.15335938 150.58925781 -63.18171875 151.67851562 -63.2109375 152.80078125 C-62.12277928 160.79597768 -56.47367127 165.88146298 -50.96801758 171.29418945 C-50.18875412 172.0722847 -49.40949066 172.85037994 -48.60661316 173.65205383 C-46.04283057 176.20867898 -43.46870495 178.7546226 -40.89453125 181.30078125 C-39.10829757 183.07887559 -37.32280067 184.85771038 -35.53800964 186.63725281 C-31.32663261 190.83328503 -27.10898324 195.02293723 -22.88785809 199.20915717 C-14.86985898 207.16135946 -6.86626046 215.12803656 1.1363163 223.09575462 C3.76885876 225.71429946 6.4051571 228.32901635 9.04203796 230.94319153 C10.64683937 232.53797458 12.25156466 234.13283424 13.85620117 235.7277832 C14.96347061 236.82259003 14.96347061 236.82259003 16.09310913 237.93951416 C16.76183548 238.60527969 17.43056183 239.27104523 18.11955261 239.95698547 C18.70338305 240.53599767 19.2872135 241.11500986 19.88873577 241.71156788 C21.88646641 243.87758 22.23976434 245.09333194 22.5625 248.0625 C22.25 251.1875 22.25 251.1875 20.6875 253.5625 C18.14477073 255.25765285 16.39389699 255.89426181 13.32729721 255.79973412 C8.37561347 254.3403427 4.89987976 249.69081646 1.41845703 246.0871582 C0.44835868 245.10853202 -0.52332325 244.13147345 -1.49645996 243.15586853 C-3.58624432 241.05413663 -5.66453713 238.94187643 -7.73461533 236.82073402 C-11.01294764 233.46190629 -14.31634198 230.12849047 -17.62356567 226.79814148 C-23.45245977 220.92201728 -29.25961539 215.02477642 -35.06225586 209.1227417 C-43.78496828 200.25105625 -52.52521288 191.39671253 -61.28460038 182.56123799 C-64.56317614 179.25259449 -67.83057104 175.9334132 -71.08928275 172.60520804 C-73.12655595 170.52829431 -75.17219013 168.45976231 -77.21994019 166.39318275 C-78.60757874 164.98757809 -79.98492751 163.57183789 -81.36184692 162.1557312 C-86.9251702 156.56195953 -92.63813623 151.26368185 -100.5703125 149.59375 C-107.29138274 149.86714947 -112.21082958 151.05228851 -117.5 155.5 C-121.8637709 160.71228191 -123.08117587 164.76700496 -123.24609375 171.4296875 C-121.62035801 180.46724207 -115.4170261 186.06778697 -109.13208008 192.24365234 C-108.14703564 193.22592698 -107.16288282 194.20909645 -106.17955017 195.19308472 C-103.5232967 197.84623134 -100.85501036 200.48696661 -98.18444657 203.12569761 C-95.38807143 205.89322506 -92.60352238 208.67259873 -89.8177948 211.45083618 C-84.54637859 216.70469853 -79.26527315 221.94870134 -73.98020619 227.18882811 C-66.21226144 234.89143014 -58.4570987 242.60688552 -50.70427227 250.32470131 C-50.13603184 250.89037233 -49.56779141 251.45604335 -48.98233157 252.03885591 C-47.8497559 253.16633448 -46.7172126 254.29384557 -45.58470267 255.42139018 C-42.26492108 258.72590065 -38.94163016 262.02683072 -35.61529315 265.32474208 C-33.55214863 267.3709099 -31.49092218 269.41900248 -29.43007851 271.46748734 C-28.01382109 272.87386779 -26.59499978 274.27766484 -25.17611694 275.68139648 C-24.33910751 276.51399994 -23.50209808 277.34660339 -22.63972473 278.20443726 C-21.90840741 278.92963751 -21.17709009 279.65483776 -20.42361164 280.40201378 C-18.03299142 282.95243788 -17.76788388 283.99435407 -17.4375 287.5625 C-17.75 291.1875 -17.75 291.1875 -19.375 293.625 C-22.4448018 295.64460645 -24.12231159 295.55086292 -27.75 295.1875 C-29.92866516 293.81503296 -29.92866516 293.81503296 -32.06762695 291.74755859 C-32.93304108 290.91939636 -33.7984552 290.09123413 -34.69009399 289.23797607 C-35.71175712 288.22285325 -36.7315811 287.20587755 -37.75 286.1875 C-38.63162622 285.31533215 -38.63162622 285.31533215 -39.53106308 284.42554474 C-43.8145046 280.18546655 -48.06107493 275.90978955 -52.29784203 271.62312698 C-54.71236581 269.18167021 -57.13149146 266.74486271 -59.55207825 264.30941772 C-66.42700185 257.39201447 -73.29900396 250.471785 -80.1550293 243.53564453 C-84.36596815 239.27616932 -88.58662293 235.02653542 -92.81377602 230.78315353 C-94.41657124 229.17047749 -96.01570781 227.55415642 -97.61104393 225.9341011 C-99.83854553 223.67281981 -102.07821974 221.42429181 -104.32104492 219.17822266 C-104.97212219 218.51119324 -105.62319946 217.84416382 -106.29400635 217.15692139 C-111.11540654 212.36715433 -116.07616818 208.76344297 -123.1875 208.75 C-129.3225076 208.98032452 -133.92585767 211.26735018 -138.125 215.6875 C-141.0628579 220.20728138 -142.04331 223.07416017 -142.0625 228.5625 C-142.08763672 230.21378906 -142.08763672 230.21378906 -142.11328125 231.8984375 C-141.26349722 239.59218106 -136.35307355 243.99759661 -131.09741211 249.16479492 C-130.31990097 249.94113785 -129.54238983 250.71748077 -128.74131775 251.51734924 C-126.17689791 254.0745976 -123.60213275 256.62116468 -121.02734375 259.16796875 C-119.24207713 260.94509737 -117.45754638 262.72296553 -115.67372131 264.50154114 C-111.45995341 268.69994946 -107.23991554 272.89198056 -103.01641899 277.08059627 C-95.00021567 285.03109091 -86.9983086 292.99595618 -78.99749947 300.96193886 C-76.36667436 303.57878075 -73.7320835 306.1917843 -71.09690857 308.804245 C-69.48892183 310.40221071 -67.88101252 312.00025435 -66.27319336 313.59838867 C-65.53703796 314.32623566 -64.80088257 315.05408264 -64.04241943 315.8039856 C-63.37087326 316.47257095 -62.69932709 317.14115631 -62.00743103 317.83000183 C-61.42322356 318.40939105 -60.83901609 318.98878027 -60.23710537 319.58572674 C-57.94210839 322.05768661 -56.80562903 323.75173928 -56.375 327.125 C-56.75 330.1875 -56.75 330.1875 -58.3125 332.5625 C-61.83248343 334.90915562 -63.58110943 334.9517966 -67.75 334.1875 C-74.35879683 329.57160785 -79.874909 323.15952754 -85.51761436 317.43391991 C-87.10844903 315.82075805 -88.70347778 314.21185187 -90.29975891 312.6040802 C-94.8319042 308.03860702 -99.35958521 303.46877358 -103.87719727 298.88891602 C-106.65507802 296.07335966 -109.44024835 293.26519295 -112.23020363 290.46160316 C-113.28671292 289.39706124 -114.34044284 288.32975317 -115.39127159 287.2596035 C-116.85775434 285.76659398 -118.33333433 284.28316525 -119.8112793 282.80151367 C-120.64652634 281.95658859 -121.48177338 281.11166351 -122.34233093 280.24113464 C-127.55012288 275.79911971 -132.82128989 275.63704428 -139.4453125 275.7421875 C-145.80682167 276.59941214 -149.87087529 279.85282991 -153.8125 284.75 C-155.97348213 292.67360115 -155.81559575 300.01456627 -151.75 307.1875 C-149.63088723 309.75692654 -149.63088723 309.75692654 -147.12432861 312.20758057 C-146.6627403 312.67525998 -146.201152 313.14293939 -145.72557616 313.62479091 C-144.18769623 315.17922655 -142.63940044 316.72283118 -141.09082031 318.26660156 C-139.981118 319.38364918 -138.87203873 320.50131603 -137.76353455 321.61955261 C-134.75554267 324.6497377 -131.73799948 327.67023487 -128.71794605 330.68839359 C-126.18876826 333.21745141 -123.66395301 335.75084315 -121.1389997 338.28411746 C-115.1711646 344.2711845 -109.19519299 350.25004524 -103.21435547 356.22412109 C-97.0726467 362.35921252 -90.9457719 368.50883568 -84.82599378 374.66579652 C-79.55242504 379.97022461 -74.26906452 385.26476462 -68.97810626 390.55184722 C-65.82694449 393.70095555 -62.67954829 396.853595 -59.54178619 400.01605988 C-56.5816639 402.99871173 -53.60934124 405.96867979 -50.62790108 408.93001747 C-49.54621174 410.00834083 -48.46861312 411.0907891 -47.39587975 412.17802238 C-33.93272334 425.81025246 -18.3745807 435.33646475 -0.20678711 441.4453125 C13.67786507 446.11500413 22.5335099 452.98789684 32.61889648 463.61425781 C42.51235052 473.93232832 53.13677969 480.1580355 67.75 480.6875 C86.98953876 479.96804801 98.56213952 468.3476227 111.359375 455.51171875 C112.69798288 454.17768227 114.03695867 452.84401487 115.37628174 451.51069641 C118.16816689 448.72769849 120.95437154 445.93916366 123.73681641 443.14672852 C127.28426662 439.58777746 130.84735083 436.04495651 134.41509628 432.50636578 C137.17957628 429.76031979 139.93459128 427.00492623 142.68701935 424.24680519 C143.99633207 422.93734022 145.30870659 421.63092859 146.62432098 420.32779503 C158.53908203 408.51025779 167.43082039 397.70610883 167.6875 380.3125 C167.60178392 367.22204728 163.12711787 358.80642644 154.59375 349.19140625 C148.80266586 342.61638909 144.12884316 336.61036534 141.25 328.1875 C140.99541016 327.52129639 140.74082031 326.85509277 140.47851562 326.16870117 C137.79854222 318.48924055 137.79463753 310.93401516 137.75 302.875 C137.6579773 286.39293477 134.40271687 273.65158997 127.65820312 258.69921875 C123.39089082 248.93279265 123.39089082 248.93279265 124.25 243.1875 C126.63813953 240.52643024 128.26553885 239.40900376 131.75 238.625 C135.39682387 239.44553537 136.80030521 241.41312683 139.25 244.1875 C140.77978516 247.13500977 140.77978516 247.13500977 142.0390625 250.37890625 C142.50570313 251.57193359 142.97234375 252.76496094 143.453125 253.99414062 C143.68708984 254.61264893 143.92105469 255.23115723 144.16210938 255.8684082 C144.86597361 257.7261759 145.59301229 259.57510962 146.3203125 261.42382812 C149.20999234 268.90890161 151.52087269 276.3522225 153.25 284.1875 C163.21761449 274.88802575 169.6725971 265.04782242 174.25 252.1875 C174.57097656 251.31222656 174.89195312 250.43695313 175.22265625 249.53515625 C180.54759588 232.27244498 177.98044742 212.9095138 170.4375 196.8125 C161.13885082 179.46427392 144.90329855 165.69910747 131.11328125 151.953125 C129.38000379 150.22171659 127.64694992 148.49008433 125.91410828 146.75823975 C121.39057662 142.23849491 116.86404824 137.72176331 112.33685303 133.20568848 C107.70254493 128.58167771 103.07112715 123.95477393 98.43945312 119.328125 C89.37910185 110.27844327 80.31567479 101.23184865 71.25 92.1875 C67.90026695 95.48244367 65.00990255 98.71221988 62.3125 102.5625 C51.95550509 116.94613965 51.95550509 116.94613965 44.25 119.1875 C38.14386815 120.05216393 32.55505707 119.77839715 27.15234375 116.640625 C21.89905605 112.62784672 17.95526412 107.41875434 14.4375 101.875 C6.67984271 89.87258683 -4.62503119 79.63085265 -16.625 72 C-22.08023979 68.4951817 -27.23630268 63.69639849 -28.75 57.1875 C-29.44720065 49.88590773 -28.91661437 43.35552234 -24.37890625 37.3828125 C-20.3063114 32.98792597 -15.51165088 29.93267438 -10.3984375 26.86328125 C-7.67885951 25.14248632 -5.22641896 23.23926228 -2.75 21.1875 C-5.60351185 13.9489304 -14.30838986 9.67796488 -21 6.4375 C-39.2355016 -1.1392225 -59.0574453 -3.0669424 -77.75 4.1875 C-85.74370041 7.53652348 -92.74093143 11.84166184 -99.26806641 17.53857422 C-99.86552988 18.05604658 -100.46299335 18.57351894 -101.07856178 19.10667229 C-108.31701578 25.45483417 -115.10532015 32.25354629 -121.8984375 39.0703125 C-123.29061313 40.46113689 -124.68308519 41.85166461 -126.07583618 43.24191284 C-128.96136036 46.12451913 -131.84331262 49.01063461 -134.72265625 51.89941406 C-138.41912038 55.60740039 -142.12466797 59.30616027 -145.83283043 63.00244331 C-148.69475941 65.85717232 -151.55194194 68.71661332 -154.40767288 71.57754135 C-155.77381148 72.94501499 -157.14143974 74.31100207 -158.51057053 75.67547989 C-160.408236 77.56809704 -162.29942569 79.46695031 -164.18896484 81.36767578 C-164.75606674 81.93072922 -165.32316864 82.49378265 -165.90745544 83.07389832 C-168.82713653 85.64926412 -168.82713653 85.64926412 -169.75 89.1875 C-168.19167666 90.30299804 -166.62597704 91.40969423 -165.02392578 92.46142578 C-158.59416273 96.6855096 -153.03811475 100.46686741 -150.75 108.1875 C-149.47057937 114.38133071 -151.40124262 119.95091623 -154.75 125.1875 C-158.64929162 129.5180074 -163.46017906 132.70570488 -168.1875 136.0625 C-176.3228929 141.91368162 -182.47328372 148.47833675 -188.0703125 156.7578125 C-192.34965893 162.94793687 -196.20630081 168.17584688 -203.75 170.1875 C-209.51154273 171.03684596 -214.32884593 170.92857726 -219.4375 167.9375 C-224.93366298 163.83025907 -228.29206145 158.0104047 -231.75 152.1875 C-236.21777219 152.60872218 -238.7329844 155.72064677 -241.73046875 158.734375 C-242.30275711 159.30142151 -242.87504547 159.86846802 -243.4646759 160.45269775 C-244.67790364 161.65950062 -245.88726073 162.87020534 -247.09301758 164.08447266 C-248.9016703 165.90150431 -250.72789383 167.69931719 -252.55664062 169.49609375 C-269.49947108 186.33638784 -280.89270003 204.58164608 -281.1875 229.0625 C-281.05579045 248.10577393 -274.883352 265.35409708 -261.55078125 279.078125 C-258.83851035 282.25518853 -258.42508562 284.04484171 -258.75 288.1875 C-259.75 291.0625 -259.75 291.0625 -261.75 293.1875 C-264.9375 294.4375 -264.9375 294.4375 -268.75 294.1875 C-282.22120507 286.53278266 -290.53408698 268.50115796 -294.60424805 254.13598633 C-301.2743935 229.17844724 -297.54487118 205.0582415 -284.89086914 182.61132812 C-277.98933751 171.15969058 -267.52314368 161.69568161 -258.0625 152.375 C-256.85955062 151.18211986 -255.6570744 149.98876239 -254.45507812 148.79492188 C-251.55877973 145.92028005 -248.65626275 143.05206601 -245.75 140.1875 C-249.09409519 136.77501482 -252.3430546 133.97351903 -256.3125 131.3125 C-262.60837169 126.77065986 -265.45864427 123.18404738 -266.75 115.375 C-267.13359985 109.07437246 -265.45879606 103.34409161 -261.30859375 98.5078125 C-259.5322807 96.92411171 -257.69633763 95.55780756 -255.75 94.1875 C-254.863125 93.53910156 -253.97625 92.89070313 -253.0625 92.22265625 C-251.21549315 90.87504392 -249.3606046 89.53813229 -247.49609375 88.21484375 C-242.13129248 84.25420099 -237.71086635 80.24401608 -233.75 74.875 C-233.31848633 74.30467041 -232.88697266 73.73434082 -232.44238281 73.14672852 C-230.58758467 70.68908619 -228.76810751 68.21297871 -226.984375 65.703125 C-223.27608944 60.51152522 -219.95720563 57.25656854 -213.75 55.1875 C-206.69621544 54.49237745 -200.48113017 54.68356547 -194.75 59.1875 C-192.46965507 61.68318016 -190.62692152 64.38220869 -188.75 67.1875 C-187.6332134 68.69362505 -186.50845649 70.19387977 -185.375 71.6875 C-184.5 72.85416667 -183.625 74.02083333 -182.75 75.1875 C-179.97895076 73.92133913 -177.94489736 72.62857469 -175.80615234 70.463974 C-175.25424728 69.91048279 -174.70234222 69.35699158 -174.13371277 68.78672791 C-173.54044693 68.18155838 -172.94718109 67.57638885 -172.3359375 66.95288086 C-171.38374077 65.99389389 -171.38374077 65.99389389 -170.41230774 65.01553345 C-169.03458992 63.6268623 -167.65915363 62.23592475 -166.28573608 60.84300041 C-164.10289404 58.62993168 -161.91338878 56.42365977 -159.72192383 54.21913147 C-153.49205306 47.94958638 -147.27474579 41.6676377 -141.06103516 35.38208008 C-137.25682558 31.53482422 -133.44506928 27.69517064 -129.62896729 23.8597126 C-128.18452955 22.40479384 -126.74300704 20.94697418 -125.30462646 19.48606682 C-115.17276791 9.19593974 -105.02795354 -0.85423334 -91.8125 -7.125 C-91.14500732 -7.45056885 -90.47751465 -7.7761377 -89.78979492 -8.11157227 C-60.31120443 -22.08580372 -26.50064395 -18.34062162 0 0 Z " fill="#020202" transform="translate(307.75,15.8125)"/>
<path d="M0 0 C3.16217261 2.51737205 6.13513092 5.14993645 9 8 C7.49764763 12.21229178 4.47327628 13.99193135 0.875 16.3125 C-10.09430122 23.15235741 -10.09430122 23.15235741 -16.59765625 33.83203125 C-17.81679567 40.40118057 -17.76769735 46.23295409 -14.38671875 52.12890625 C-10.73533358 57.05570483 -5.87705721 60.49324859 -0.75 63.75 C10.73448711 71.18813932 20.69287391 81.74555662 28.0625 93.1875 C32.32804296 99.75309063 36.45900405 104.47135009 44 107 C50.68380144 107.96206233 56.21313025 107.30523979 61.94921875 103.66796875 C65.68122069 100.63260717 68.28229047 96.93495415 71 93 C72.41172196 91.01730329 73.82845359 89.03816468 75.25 87.0625 C75.89453125 86.14597656 76.5390625 85.22945313 77.203125 84.28515625 C79 82 79 82 82 80 C93.21138536 91.16451658 104.41692594 102.33486454 115.61567688 113.51205254 C120.81641595 118.70251027 126.0189989 123.89109349 131.22607422 129.07519531 C135.76832355 133.597414 140.3069613 138.12322206 144.84142494 142.65324795 C147.23908374 145.04831564 149.63842701 147.44163539 152.04211426 149.83065414 C154.73462937 152.50854933 157.42071655 155.19274302 160.10546875 157.87841797 C160.89022079 158.65597946 161.67497284 159.43354095 162.48350525 160.23466492 C175.3024369 173.10102873 183.18171724 185.60811085 188 203 C188.18103271 203.63437988 188.36206543 204.26875977 188.54858398 204.92236328 C190.97947755 216.11052134 189.90737299 230.34495479 186 241 C185.64808594 241.98871094 185.29617188 242.97742188 184.93359375 243.99609375 C180.30253019 255.99406369 173.65085062 265.47693077 164 274 C163.67 274 163.34 274 163 274 C162.82726562 273.13503906 162.65453125 272.27007812 162.4765625 271.37890625 C159.67670414 258.83091716 154.91291034 247.22409177 149.96801758 235.3815918 C149.24880231 233.6121227 148.60401089 231.81203266 148 230 C146.03950138 229.64538376 146.03950138 229.64538376 143.75 229.5625 C141.30078125 229.12890625 141.30078125 229.12890625 139 228 C136.43111889 223.9027228 134 218.92639605 134 214 C134.7425 213.4121875 134.7425 213.4121875 135.5 212.8125 C137.35940962 210.56571338 137.3518314 208.96887441 137.28329468 206.11199951 C136.70929287 201.83273969 134.90276427 197.96198227 133.23828125 194.0078125 C132.85061081 193.06243622 132.46294037 192.11705994 132.06352234 191.14303589 C131.24288436 189.14879027 130.41632392 187.15697274 129.58422852 185.16748047 C128.32172778 182.14707652 127.07831705 179.11937043 125.83789062 176.08984375 C125.03497241 174.14537121 124.23097051 172.20134572 123.42578125 170.2578125 C122.87389885 168.91675949 122.87389885 168.91675949 122.31086731 167.5486145 C116.11321314 152.78357661 109.44703947 142.7179062 94.265625 136.35546875 C89.70958925 134.70485519 85.43687202 134.50236978 80.625 134.5625 C79.79009033 134.56862305 78.95518066 134.57474609 78.0949707 134.58105469 C68.96947702 134.81228248 62.32280468 137.55047093 55 143 C54.195625 143.5878125 53.39125 144.175625 52.5625 144.78125 C49.82303083 147.1532294 48.19705519 149.41695241 46.3125 152.5 C45.73113281 153.4384375 45.14976562 154.376875 44.55078125 155.34375 C43.27246724 157.53330548 42.11889663 159.7277233 41 162 C34.9502059 157.00399789 29.4731302 151.55425858 23.97265625 145.96484375 C23.01578415 144.9984616 22.0584541 144.0325327 21.10069275 143.06703186 C17.06671078 138.99976305 13.03705702 134.92828174 9.01782227 130.84643555 C6.54593452 128.336647 4.0665748 125.83444448 1.58245659 123.33676338 C0.19453159 121.937012 -1.18518801 120.52913958 -2.56468201 119.12107849 C-11.16506548 110.4860586 -19.8690451 104.03214713 -32.4375 103.625 C-43.39561107 103.9917987 -52.65410171 108.18031047 -60.25 116.125 C-64.01151355 120.77961034 -65.93796184 126.44344584 -68 132 C-68.96421875 131.50628906 -69.9284375 131.01257813 -70.921875 130.50390625 C-72.19780852 129.85655763 -73.47385621 129.20943401 -74.75 128.5625 C-75.38421875 128.23701172 -76.0184375 127.91152344 -76.671875 127.57617188 C-84.9667264 123.38554382 -93.70334277 122.49465162 -102.859375 124.68359375 C-112.54701517 128.30893736 -119.01583629 133.97881895 -124 143 C-124.34160156 143.61488281 -124.68320313 144.22976562 -125.03515625 144.86328125 C-128.75058428 152.93353655 -128.06155406 162.8389822 -125.25 171.0625 C-123.66853298 174.90320562 -121.80112119 177.89875868 -119 181 C-119 181.66 -119 182.32 -119 183 C-120.14275391 183.4021875 -120.14275391 183.4021875 -121.30859375 183.8125 C-132.2149737 187.95175032 -140.04314272 193.53442466 -144.95703125 204.39453125 C-147.70345476 213.88872189 -147.70735743 224.58611674 -143.5 233.625 C-140.34053926 238.99154815 -136.38257131 243.59518214 -132 248 C-133 250 -133 250 -134.75 250.60546875 C-135.86375 250.89357422 -135.86375 250.89357422 -137 251.1875 C-145.41652075 253.87704002 -151.03963872 259.31124317 -155.80859375 266.59375 C-160.21226861 275.48772938 -160.8197251 286.9388624 -157.97265625 296.421875 C-152.62753514 307.8524387 -142.62927422 316.5209312 -133.8371582 325.32397461 C-132.85344677 326.31233033 -131.86992699 327.30087683 -130.88658142 328.28959656 C-128.24411256 330.94503257 -125.59845147 333.59726377 -122.95172906 336.24845958 C-121.29027186 337.91287183 -119.62939323 339.5778594 -117.96867943 341.24301338 C-112.7490693 346.47625423 -107.52749234 351.70752058 -102.30300361 356.93589109 C-96.31504366 362.92832751 -90.3336765 368.92724238 -84.35798389 374.93191141 C-79.7082106 379.6034316 -75.05256159 384.2690442 -70.39256734 388.93036848 C-67.62311077 391.70086339 -64.85603792 394.47363393 -62.09511757 397.25263786 C-42.64934298 417.0829415 -42.64934298 417.0829415 -20 433 C-19.39800781 433.35449219 -18.79601562 433.70898438 -18.17578125 434.07421875 C-14.52388509 436.20515165 -10.79929273 438.14668647 -7 440 C-18.52957146 449.41134787 -35.77550377 450.1798426 -50 449 C-70.81087277 446.21105991 -85.78012046 434.63717332 -100.125 420 C-100.98609375 419.12988281 -101.8471875 418.25976562 -102.734375 417.36328125 C-104.82763992 415.24675783 -106.91603944 413.12567828 -109 411 C-108.71777588 410.34265869 -108.43555176 409.68531738 -108.14477539 409.00805664 C-105.04710018 401.58113327 -103.47308106 395.62056052 -105.63671875 387.65625 C-108.90441552 380.32007702 -115.80867863 376.52576174 -122.22949219 372.21435547 C-134.11779135 364.06041172 -143.52413428 353.94163202 -151.11328125 341.7265625 C-154.63270665 336.64051917 -159.05729117 332.07381584 -165 330 C-172.07954651 329.04759464 -177.52182354 330.22363866 -184 333 C-187 333 -187 333 -188.94178772 331.4122467 C-189.67521896 330.66913742 -190.40865021 329.92602814 -191.16430664 329.16040039 C-191.99849625 328.3227565 -192.83268585 327.48511261 -193.69215393 326.62208557 C-194.5890947 325.7065239 -195.48603546 324.79096222 -196.41015625 323.84765625 C-197.82050006 322.4272051 -199.23084609 321.00675614 -200.64132595 319.58644009 C-202.61849047 317.59170826 -204.58868818 315.59016079 -206.559021 313.58868408 C-210.00821792 310.08739845 -213.46722431 306.59581357 -216.92784119 303.1058197 C-218.77065489 301.24596238 -220.61038165 299.3830406 -222.4467926 297.51686096 C-223.27783005 296.67606491 -224.10886749 295.83526886 -224.96508789 294.96899414 C-225.69772354 294.22508926 -226.43035919 293.48118439 -227.18519592 292.71473694 C-230.64155881 289.4489557 -233.3659158 289.920102 -238 290 C-242.52520051 290 -243.12719105 289.57155636 -246.3125 286.625 C-250.00792665 282.80191315 -250.00792665 282.80191315 -249.9765625 279.62890625 C-249.79867187 278.82324219 -249.62078125 278.01757812 -249.4375 277.1875 C-248.72179886 273.59247813 -248.72275641 272.44652827 -250.6953125 269.26953125 C-252.29824593 267.39415204 -253.92825035 265.54163449 -255.58203125 263.7109375 C-269.7594797 247.8157045 -272.13711497 227.34430177 -271 207 C-268.57657929 185.4095246 -253.67151191 169.11420742 -238.9296875 154.42871094 C-237.09174065 152.59175865 -235.27641086 150.73413787 -233.4609375 148.875 C-232.29035901 147.69922862 -231.11853177 146.52469884 -229.9453125 145.3515625 C-229.40673615 144.79659088 -228.86815979 144.24161926 -228.31326294 143.66983032 C-224.57330897 139.99838644 -224.57330897 139.99838644 -221.74462891 140.00634766 C-218.95289507 141.59637798 -217.86373085 144.01599319 -216.25 146.75 C-212.87013811 151.97851563 -210.08159601 156.04481549 -204 158 C-197.72161537 159.00196768 -192.21691339 158.4793533 -186.69140625 155.2421875 C-183.91601296 153.2039079 -181.97449479 150.77316684 -180 148 C-171.81773308 136.67574259 -163.47453331 127.25029991 -151.8215332 119.48583984 C-146.11617546 115.63259752 -142.59285722 111.7696432 -141 105 C-140.34568182 99.29808445 -141.00638322 95.34484579 -143.95703125 90.38671875 C-148.37595971 85.22426122 -154.33721206 81.67046742 -160 78 C-158.33911229 73.69105601 -155.0818691 70.80121913 -151.87304688 67.61425781 C-151.24508209 66.98278839 -150.61711731 66.35131897 -149.97012329 65.70071411 C-147.8913374 63.61312316 -145.80531541 61.53293818 -143.71875 59.453125 C-142.2655359 57.99856289 -140.81261874 56.54370406 -139.35998535 55.08856201 C-136.30996654 52.03559275 -133.25635642 48.98627329 -130.20019531 45.93945312 C-126.30447649 42.05506789 -122.41772407 38.16185519 -118.53368378 34.26579666 C-115.53109892 31.25593904 -112.52370984 28.25091782 -109.51490784 25.24727631 C-108.08148324 23.81517644 -106.64951662 22.38161558 -105.21910095 20.94651031 C-76.12260469 -8.22434982 -38.17973038 -25.55746979 0 0 Z " fill="#DADFE9" transform="translate(297,27)"/>
<path d="M0 0 C3.19184139 1.168202 5.35601594 2.64509622 7.97426891 4.80957222 C8.82505016 5.49664253 9.67583141 6.18371284 10.55239391 6.89160347 C12.59823291 8.87488984 13.66648151 10.38198669 14.72426891 12.99707222 C12.68449309 14.582892 10.64253584 16.1657613 8.59926891 17.74707222 C8.02950329 18.19050972 7.45973766 18.63394722 6.87270641 19.09082222 C4.12041001 21.21759671 1.37373692 23.2282384 -1.53354359 25.14550972 C-6.71640812 28.64505073 -9.97936073 32.86877599 -11.27573109 38.99707222 C-12.02603118 45.85366076 -11.45035672 51.36426749 -7.27573109 56.99707222 C-3.62231887 60.88139988 0.48811627 63.89742898 4.97426891 66.74707222 C16.45875602 74.18521154 26.41714282 84.74262884 33.78676891 96.18457222 C38.05231187 102.75016285 42.18327297 107.46842231 49.72426891 109.99707222 C56.40807036 110.95913455 61.93739916 110.30231201 67.67348766 106.66504097 C71.40548961 103.62967939 74.00655938 99.93202637 76.72426891 95.99707222 C78.13599088 94.01437551 79.5527225 92.0352369 80.97426891 90.05957222 C81.61880016 89.14304878 82.26333141 88.22652534 82.92739391 87.28222847 C84.72426891 84.99707222 84.72426891 84.99707222 87.72426891 82.99707222 C98.93565428 94.1615888 110.14119485 105.33193676 121.33994579 116.50912476 C126.54068486 121.69958249 131.74326782 126.88816571 136.95034313 132.07226753 C141.49259246 136.59448622 146.03123021 141.12029428 150.56569386 145.65032017 C152.96335265 148.04538786 155.36269592 150.43870761 157.76638317 152.82772636 C160.45889829 155.50562155 163.14498547 158.18981524 165.82973766 160.87549019 C166.61448971 161.65305168 167.39924175 162.43061317 168.20777416 163.23173714 C181.02670582 176.09810095 188.90598616 188.60518307 193.72426891 205.99707222 C193.90530163 206.6314521 194.08633434 207.26583199 194.2728529 207.9194355 C196.70374646 219.10759356 195.6316419 233.34202701 191.72426891 243.99707222 C191.37235485 244.98578316 191.02044079 245.97449409 190.65786266 246.99316597 C186.02679911 258.99113591 179.37511953 268.47400299 169.72426891 276.99707222 C169.39426891 276.99707222 169.06426891 276.99707222 168.72426891 276.99707222 C168.55153454 276.13211128 168.37880016 275.26715034 168.20083141 274.37597847 C165.40097305 261.82798938 160.63717925 250.22116399 155.69228649 238.37866402 C154.97307122 236.60919492 154.3282798 234.80910488 153.72426891 232.99707222 C151.76377029 232.64245597 151.76377029 232.64245597 149.47426891 232.55957222 C147.02505016 232.12597847 147.02505016 232.12597847 144.72426891 230.99707222 C142.1553878 226.89979502 139.72426891 221.92346827 139.72426891 216.99707222 C140.46676891 216.40925972 140.46676891 216.40925972 141.22426891 215.80957222 C143.08367853 213.5627856 143.07610031 211.96594663 143.00756359 209.10907173 C142.43356179 204.82981191 140.62703318 200.95905449 138.96255016 197.00488472 C138.57487972 196.05950844 138.18720928 195.11413216 137.78779125 194.14010811 C136.96715327 192.14586249 136.14059283 190.15404496 135.30849743 188.16455269 C134.04599669 185.14414874 132.80258597 182.11644265 131.56215954 179.08691597 C130.75924132 177.14244343 129.95523943 175.19841794 129.15005016 173.25488472 C128.59816776 171.91383171 128.59816776 171.91383171 128.03513622 170.54568672 C121.83748205 155.78064883 115.17130838 145.71497842 99.98989391 139.35254097 C95.43385816 137.70192741 91.16114093 137.499442 86.34926891 137.55957222 C85.51435925 137.56569527 84.67944958 137.57181831 83.81923962 137.57812691 C74.69374593 137.8093547 68.04707359 140.54754315 60.72426891 145.99707222 C59.91989391 146.58488472 59.11551891 147.17269722 58.28676891 147.77832222 C55.54729974 150.15030162 53.9213241 152.41402463 52.03676891 155.49707222 C51.45540173 156.43550972 50.87403454 157.37394722 50.27505016 158.34082222 C48.99673616 160.5303777 47.84316555 162.72479552 46.72426891 164.99707222 C40.67447481 160.00107011 35.19739911 154.5513308 29.69692516 148.96191597 C28.74005306 147.99553382 27.78272301 147.02960492 26.82496166 146.06410408 C22.7909797 141.99683527 18.76132594 137.92535396 14.74209118 133.84350777 C12.27020344 131.33371922 9.79084371 128.8315167 7.3067255 126.3338356 C5.9188005 124.93408422 4.53908091 123.5262118 3.15958691 122.11815071 C-5.44079657 113.48313082 -14.14477618 107.02921935 -26.71323109 106.62207222 C-37.67134216 106.98887092 -46.9298328 111.17738269 -54.52573109 119.12207222 C-58.28724463 123.77668256 -60.21369292 129.44051806 -62.27573109 134.99707222 C-63.23994984 134.50336128 -64.20416859 134.00965034 -65.19760609 133.50097847 C-66.4735396 132.85362985 -67.7495873 132.20650623 -69.02573109 131.55957222 C-69.65994984 131.23408394 -70.29416859 130.90859566 -70.94760609 130.57324409 C-79.24245749 126.38261604 -87.97907386 125.49172384 -97.13510609 127.68066597 C-106.82274626 131.30600957 -113.29156737 136.97589117 -118.27573109 145.99707222 C-118.61733265 146.61195503 -118.95893421 147.22683784 -119.31088734 147.86035347 C-123.02631537 155.93060877 -122.33728514 165.83605442 -119.52573109 174.05957222 C-117.94426407 177.90027784 -116.07685228 180.8958309 -113.27573109 183.99707222 C-113.27573109 184.65707222 -113.27573109 185.31707222 -113.27573109 185.99707222 C-114.41848499 186.39925972 -114.41848499 186.39925972 -115.58432484 186.80957222 C-126.49070478 190.94882254 -134.3188738 196.53149688 -139.23276234 207.39160347 C-141.97918585 216.88579411 -141.98308851 227.58318896 -137.77573109 236.62207222 C-134.61627034 241.98862037 -130.65830239 246.59225436 -126.27573109 250.99707222 C-127.27573109 252.99707222 -127.27573109 252.99707222 -129.02573109 253.60254097 C-130.13948109 253.89064644 -130.13948109 253.89064644 -131.27573109 254.18457222 C-139.51651771 256.81795554 -145.55650722 262.22431548 -150.06088734 269.53613472 C-153.21535695 275.92621785 -154.49390046 282.96059653 -155.27573109 289.99707222 C-174.22021429 274.42049714 -187.81287988 255.87829943 -191.27573109 230.99707222 C-193.38212792 208.63822417 -187.42904567 187.58559131 -173.27573109 169.99707222 C-168.03619308 164.04384211 -162.35565744 158.49806794 -156.74374866 152.89990425 C-155.07649917 151.22230487 -153.41007385 149.54388607 -151.74440479 147.86471748 C-147.25011155 143.33956639 -142.74320517 138.82718871 -138.23282933 134.31807375 C-135.41437041 131.49899149 -132.59876481 128.67708174 -129.78452587 125.85378838 C-119.45850405 115.49519129 -109.12081332 105.14838419 -98.77410223 94.81045447 C-90.61590483 86.65825761 -82.47612641 78.48794061 -74.34450892 70.30923845 C-65.97951714 61.89619087 -57.60163266 53.49618022 -49.20983142 45.10987175 C-44.50448019 40.4070974 -39.80487021 35.69883426 -35.11833096 30.97730064 C-30.7202589 26.54741107 -26.30581588 22.13453166 -21.87798214 17.73439598 C-20.25374349 16.11463208 -18.63550015 14.48883142 -17.02365971 12.85672951 C-14.82836947 10.63571472 -12.61278885 8.43720182 -10.39055347 6.24319649 C-9.75270839 5.58768999 -9.11486331 4.9321835 -8.45768958 4.25681317 C-4.07718281 -0.0036441 -4.07718281 -0.0036441 0 0 Z " fill="#F0F4FA" transform="translate(291.27573108673096,24.002927780151367)"/>
<path d="M0 0 C6.00092668 2.20033978 8.31821329 7.193409 11.75 12.375 C14.0224946 15.42416996 16.37379091 18.40614969 18.75 21.375 C19.48669922 22.29925781 19.48669922 22.29925781 20.23828125 23.2421875 C26.97802127 31.41707431 35.23764836 37.2697727 43.93481445 43.19995117 C45.01508911 43.94402222 45.01508911 43.94402222 46.1171875 44.703125 C46.76800293 45.1455957 47.41881836 45.58806641 48.08935547 46.04394531 C49.75 47.375 49.75 47.375 51.75 50.375 C51.81742291 53.76994165 51.76898982 56.26906317 49.38232422 58.859375 C47.54078027 60.30641377 45.65188512 61.59986048 43.6875 62.875 C42.31188819 63.82144299 40.9381727 64.77064837 39.56640625 65.72265625 C38.90527832 66.17527832 38.24415039 66.62790039 37.56298828 67.09423828 C34.6715443 69.13686084 32.06518859 71.44955695 29.4609375 73.83984375 C28.1244936 75.03898177 26.72322108 76.16596366 25.30078125 77.26171875 C22.69726075 79.41869362 20.68858618 81.62530073 18.5625 84.25 C17.78777344 85.20390625 17.01304687 86.1578125 16.21484375 87.140625 C14.43337625 89.42078925 12.7922742 91.76175705 11.19140625 94.171875 C10.76303467 94.80754395 10.33466309 95.44321289 9.89331055 96.09814453 C9.06410135 97.34155928 8.25338237 98.59755803 7.46411133 99.86669922 C5.31243253 103.08628851 3.97396347 104.30134758 0.2578125 105.5234375 C-4.06504131 105.3405105 -5.29707934 104.47909408 -8.25 101.375 C-10.1015625 98.78125 -10.1015625 98.78125 -11.875 95.875 C-20.9748746 81.84104705 -33.53127674 69.93789464 -47.71875 61.1640625 C-51.2302168 58.68219245 -52.95875183 56.71474156 -53.875 52.5 C-52.93010934 47.7755467 -50.07873367 46.06220382 -46.25 43.375 C-44.85743938 42.47408769 -43.46145966 41.57844328 -42.0625 40.6875 C-28.76327403 32.0022912 -17.32541411 19.30545686 -9.0390625 5.90625 C-6.3949315 2.16520877 -4.58730844 0.52930482 0 0 Z " fill="#FDCE48" transform="translate(347.25,14.625)"/>
<path d="M0 0 C4.03619169 3.30333304 6.79958794 8.11232161 9.8125 12.3125 C19.32424359 25.50620884 30.80885954 35.71527818 44.09375 44.93359375 C47 47 47 47 49 49 C49.4375 51.8125 49.4375 51.8125 49 55 C45.32523968 59.20470678 41.00593856 62.27272982 36.5 65.5 C23.91504367 74.75219848 13.93357572 85.28917781 5.4296875 98.42578125 C2.92570566 102.11620475 1.72988543 103.73109484 -2.5625 105.3125 C-7.09834514 104.90015044 -8.0146967 103.35731802 -11 100 C-12.39550184 98.02861928 -13.74796017 96.02626563 -15.0625 94 C-24.4132536 80.13570574 -36.44738499 68.70593957 -50.75 60 C-54 58 -54 58 -56 55 C-55.9375 51.5625 -55.9375 51.5625 -55 48 C-50.79094755 44.20102068 -45.93096467 41.09532134 -41.25976562 37.88671875 C-38.12351515 35.68620202 -35.35149572 33.43746416 -32.68359375 30.6796875 C-30 28 -30 28 -28 28 C-27.75507812 27.4328125 -27.51015625 26.865625 -27.2578125 26.28125 C-25.77913068 23.59941713 -23.99178746 21.71266982 -21.875 19.5 C-17.55350485 14.81605687 -14.10460008 9.86248902 -10.7265625 4.46875 C-7.73876727 0.19660841 -5.06008338 -0.89295589 0 0 Z " fill="#FDCE48" transform="translate(129,371)"/>
<path d="M0 0 C2.91287079 1.16299462 4.03972958 2.85462275 5.92578125 5.34375 C6.62316406 6.24867187 7.32054687 7.15359375 8.0390625 8.0859375 C9.06580078 9.45105469 9.06580078 9.45105469 10.11328125 10.84375 C17.95507796 21.2653099 26.32796617 28.97657026 36.91796875 36.5234375 C40.11328125 38.84375 40.11328125 38.84375 42.11328125 40.84375 C42.078125 43.203125 42.078125 43.203125 41.11328125 45.84375 C38.7421875 47.984375 38.7421875 47.984375 35.67578125 50.09375 C34.57414815 50.87776556 33.47523026 51.66560876 32.37890625 52.45703125 C31.82783203 52.8535791 31.27675781 53.25012695 30.70898438 53.65869141 C20.2951237 61.39260813 11.64452417 71.19901224 4.42578125 81.91015625 C2.48333556 84.771795 2.48333556 84.771795 -0.13671875 85.28125 C-5.26067402 84.4660753 -8.48911092 78.09106543 -11.47436523 74.1003418 C-19.31981271 63.64964905 -28.01209585 54.63006347 -39.66796875 48.34375 C-41.88671875 46.84375 -41.88671875 46.84375 -42.69921875 43.15625 C-42.76109375 42.063125 -42.82296875 40.97 -42.88671875 39.84375 C-42.22027344 39.37066406 -41.55382813 38.89757812 -40.8671875 38.41015625 C-26.51355458 28.11167557 -14.31930919 17.59466857 -5.0078125 2.453125 C-3.52700104 0.32736081 -2.59705398 -0.21507693 0 0 Z " fill="#FCCE48" transform="translate(99.88671875,86.15625)"/>
<path d="M0 0 C0.08636719 0.70125 0.17273438 1.4025 0.26171875 2.125 C0.40222656 3.07375 0.54273438 4.0225 0.6875 5 C0.81511719 5.928125 0.94273437 6.85625 1.07421875 7.8125 C3.64743147 16.6721691 10.31545678 22.72669479 16.71557617 29.0402832 C17.69893111 30.02115027 18.68161436 31.00269111 19.66368103 31.98484802 C22.31388124 34.63165858 24.97312166 37.26921267 27.6340158 39.90526605 C30.42279222 42.67145299 33.20257832 45.44664382 35.98323059 48.22099304 C41.24478467 53.46809898 46.51351698 58.70793016 51.78527099 63.94478625 C61.23656587 73.333989 70.67555449 82.73555638 80.11187917 92.13980168 C83.42254887 95.43864252 86.73636842 98.73427738 90.05285871 102.02726614 C92.11174245 104.07233092 94.16864565 106.1193795 96.22510719 108.16687965 C97.63520218 109.56948294 99.04785278 110.96951551 100.46057129 112.36947632 C101.29751022 113.20345444 102.13444916 114.03743256 102.99674988 114.89668274 C103.72584659 115.6209612 104.45494329 116.34523966 105.20613384 117.09146595 C108.89704963 121.01831324 109.44283622 123.53573724 109.31640625 128.7109375 C108.82160682 132.29059754 107.39106723 134.35043901 105 137 C101.63025406 138.85336027 99.92893511 139 96 139 C95.79738808 137.08750961 95.79738808 137.08750961 95.59068298 135.13638306 C94.05828139 128.37142671 89.39398136 124.49937605 84.54907227 119.81787109 C83.55705038 118.83438406 82.56660222 117.8493075 81.5776062 116.86277771 C79.45355068 114.75063558 77.31899953 112.64994935 75.17544746 110.55759811 C71.78331582 107.24613884 68.41675694 103.90945212 65.0532074 100.56900024 C59.12378005 94.68672096 53.17319145 88.82622335 47.21777344 82.97027588 C38.25159893 74.15337662 29.30313145 65.31857119 20.37325329 56.46491492 C17.02890292 53.15068863 13.67400867 49.84763733 10.31017888 46.55318809 C8.2170397 44.49955844 6.13217314 42.4376771 4.04928207 40.37365913 C2.62656961 38.96900033 1.19375827 37.57459307 -0.23936462 36.18055725 C-5.49609219 30.95235017 -9.18174465 26.88741711 -10.43359375 19.41015625 C-10.44351706 13.44624515 -9.52447874 8.9026403 -6 4 C-1.7 0 -1.7 0 0 0 Z " fill="#81D8B5" transform="translate(194,168)"/>
<path d="M0 0 C0.66 0.33 1.32 0.66 2 1 C1.34 1.66 0.68 2.32 0 3 C-0.74292352 10.32089222 2.73614956 15.42688267 7 21 C9.541421 23.89800865 12.24200047 26.60381165 14.99316406 29.30200195 C15.77111328 30.07717667 16.5490625 30.85235138 17.35058594 31.65101624 C19.89880612 34.18704608 22.4572796 36.71246997 25.015625 39.23828125 C26.79667941 41.00864958 28.5769202 42.77983677 30.35638428 44.55180359 C35.50153251 49.6719259 40.65693636 54.78164448 45.81396484 59.8897934 C52.84020581 66.85082035 59.85833833 73.8199761 66.8693161 80.79637718 C69.48516944 83.39552025 72.1073524 85.9881558 74.7300415 88.58039856 C76.32842685 90.16832644 77.92656463 91.75650356 79.52441406 93.3449707 C80.25585632 94.06450928 80.98729858 94.78404785 81.74090576 95.52539062 C82.40811646 96.19101517 83.07532715 96.85663971 83.76275635 97.54243469 C84.34306736 98.11700566 84.92337837 98.69157663 85.52127457 99.28355885 C87.64763616 101.75174832 88.92414013 103.91267524 89.15234375 107.18359375 C88.76685226 111.22774996 88.31670858 113.54893021 85.9375 116.9375 C82.25738832 119.5214082 79.40039392 120.17958757 75 121 C75.2784375 119.576875 75.2784375 119.576875 75.5625 118.125 C75.41726677 108.22219993 58.05849666 95.98113207 51.40506172 89.39102745 C48.96005843 86.96826987 46.51923243 84.5413751 44.07957458 82.11323547 C37.15017629 75.21724096 30.21645393 68.3256382 23.27270508 61.4440918 C19.00897554 57.21797268 14.75256284 52.98460243 10.50077629 48.7464695 C8.88359493 47.13733913 7.26364141 45.53098978 5.64087105 43.92749596 C3.3794024 41.69245922 1.12734137 39.44833352 -1.12280273 37.2019043 C-1.79342743 36.54363647 -2.46405212 35.88536865 -3.15499878 35.20715332 C-8.32366177 30.01588059 -10.2856006 26.14844134 -10.4375 18.6875 C-10.33967293 12.51041898 -9.16102981 8.57713279 -5 4 C-2.1875 1.5 -2.1875 1.5 0 0 Z " fill="#81D8B5" transform="translate(175,226)"/>
<path d="M0 0 C0.66 0.33 1.32 0.66 2 1 C1.34 1.66 0.68 2.32 0 3 C-0.21264913 4.94360688 -0.21264913 4.94360688 0.0625 7.125 C0.11535156 7.84945312 0.16820312 8.57390625 0.22265625 9.3203125 C2.46646962 17.05526713 8.25496585 22.66777783 13.86376953 28.15673828 C14.63996643 28.92855438 15.41616333 29.70037048 16.21588135 30.49557495 C17.89145924 32.15979152 19.57049222 33.82053526 21.25262833 35.47812271 C23.91582745 38.10285053 26.56938294 40.73699487 29.22067261 43.37374878 C34.84708134 48.96596937 40.48510871 54.54638714 46.125 60.125 C52.66937256 66.59833016 59.20865278 73.07667075 65.73550034 79.56768417 C68.3479635 82.16072262 70.96930713 84.74455047 73.59109497 87.32815552 C75.1928459 88.91900829 76.79417682 90.51028409 78.39501953 92.10205078 C79.12443756 92.81596985 79.85385559 93.52988892 80.6053772 94.26544189 C85.02863738 98.68730593 88.50320646 102.59341576 89.4375 109 C88.8509226 113.02224506 87.70412441 114.95786004 85 118 C82.43092362 119.40131439 79.87880821 120.44542439 77 121 C76.34 120.67 75.68 120.34 75 120 C75.144375 119.175 75.28875 118.35 75.4375 117.5 C74.95885124 113.6708099 74.44459735 113.00296352 71.949646 110.26235962 C71.31071159 109.55971607 70.67177719 108.85707253 70.01348114 108.13313675 C66.85973624 104.79197352 63.63700269 101.53063517 60.36816406 98.30224609 C59.64044296 97.57919785 58.91272186 96.8561496 58.16294861 96.1111908 C56.59699813 94.55566959 55.02994697 93.0012558 53.46189117 91.4478569 C50.97900383 88.98714338 48.50023323 86.52235226 46.02264404 84.05630493 C38.98304324 77.05016694 31.93924267 70.04829428 24.88525391 63.05664062 C20.5589661 58.76800472 16.24002861 54.47208349 11.92571259 50.17140579 C10.28424078 48.5379796 8.63999785 46.90733323 6.99292755 45.27955246 C4.6930997 43.00621253 2.40273002 40.72372763 0.11425781 38.43896484 C-0.90502556 37.43821678 -0.90502556 37.43821678 -1.94490051 36.41725159 C-7.2926853 31.04654803 -10.4242398 26.44724094 -10.5 18.625 C-10.35335173 12.50068878 -9.12581922 8.53840114 -5 4 C-2.1875 1.5 -2.1875 1.5 0 0 Z " fill="#81D8B5" transform="translate(254,147)"/>
<path d="M0 0 C0.66 0.33 1.32 0.66 2 1 C1.67 1.33 1.34 1.66 1 2 C0.61703874 9.45941937 3.50141623 14.31515686 8 20 C11.89574876 24.25648162 15.99044302 28.29305686 20.109375 32.33203125 C21.28508728 33.49704598 22.45997983 34.66288849 23.63409424 35.82951355 C26.7045009 38.87729347 29.78297665 41.91676978 32.86419678 44.95361328 C37.81041799 49.82923594 42.74878675 54.71270776 47.67823029 59.60529137 C49.39663497 61.30703592 51.12134318 63.00220122 52.84661865 64.69697571 C53.89898404 65.73888165 54.95110126 66.78103832 56.00292969 67.82348633 C56.92193054 68.72899734 57.8409314 69.63450836 58.78778076 70.56745911 C62.43219418 74.57483076 63.46479101 77.45011424 63.3203125 82.9609375 C62.7833298 86.37929079 61.27573794 88.47140229 59 91 C54.46691241 91 53.69388634 90.16667076 50.5899353 87.12094116 C50.02771271 86.5490506 49.46549011 85.97716003 48.88623047 85.38793945 C48.28413757 84.79124954 47.68204468 84.19455963 47.06170654 83.57978821 C45.07014734 81.60075573 43.09349172 79.6075393 41.1171875 77.61328125 C39.73829769 76.23454636 38.35874128 74.85647786 36.97854614 73.47904968 C34.08557972 70.58746913 31.19972473 67.68902452 28.31884766 64.78540039 C24.62732303 61.065531 20.92049004 57.3613824 17.20840263 53.66204548 C14.35632267 50.81692548 11.51166848 47.9644748 8.66928482 45.10967064 C7.30540849 43.74128012 5.93943867 42.37497289 4.57134628 41.0107975 C2.65842809 39.10079347 0.75551038 37.18135408 -1.14501953 35.2590332 C-1.99442612 34.41637909 -1.99442612 34.41637909 -2.86099243 33.55670166 C-7.79620538 28.52724052 -9.29559315 24.65763062 -9.4375 17.6875 C-9.34683179 11.52903648 -8.13909002 7.57293232 -4 3 C-1.6875 1 -1.6875 1 0 0 Z " fill="#81D8B5" transform="translate(161,293)"/>
<path d="M0 0 C3.59057023 0.30542195 5.35192723 1.99787516 7.875 4.4375 C10.67440086 7.04964997 13.48310908 9.3877226 16.6640625 11.5078125 C17.29715332 11.93263916 17.93024414 12.35746582 18.58251953 12.79516602 C19.83995103 13.62624914 21.1090352 14.44002001 22.39013672 15.23413086 C25.63524519 17.39499449 26.92313162 18.77949616 28.21875 22.49609375 C28 26 28 26 26.03125 28.59375 C21.95179314 31.83208173 17.77948286 34.8885636 13.52734375 37.89453125 C10.45564157 40.09746918 7.8829121 42.12516293 5.28125 44.90625 C3 47 3 47 1.015625 47.0390625 C-6.21405098 43.31213651 -18.33024656 36.00926031 -21 28 C-21.67023503 23.71201906 -21.93518428 19.76467992 -19.859375 15.84765625 C-15.63002595 10.66362404 -10.1917258 7.20231662 -4.57421875 3.6640625 C-1.96535224 2.10532547 -1.96535224 2.10532547 0 0 Z " fill="#FCE15B" transform="translate(371,44)"/>
<path d="M0 0 C3.05495685 1.36150932 5.23064375 3.37344192 7.74609375 5.5703125 C12.3664523 9.54653451 17.09692484 13.16205317 22.16015625 16.5703125 C24.12109375 17.9453125 24.12109375 17.9453125 26.12109375 19.9453125 C26.55859375 22.7578125 26.55859375 22.7578125 26.12109375 25.9453125 C22.30403983 30.3223975 17.7346341 33.60043204 13.05859375 37.0078125 C6.75865018 41.58679597 6.75865018 41.58679597 1.12109375 46.9453125 C-3.1660637 45.6055758 -6.26575871 43.31044969 -9.75390625 40.58203125 C-11.15912111 39.49970583 -12.59748421 38.4589892 -14.06640625 37.46484375 C-18.80982195 34.21246497 -21.26668612 31.6888467 -22.87890625 25.9453125 C-23.37950516 21.86900707 -23.21833976 19.65369548 -21.44140625 15.9453125 C-18.02122997 11.94120368 -14.10359155 9.05312697 -9.87890625 5.9453125 C-9.14542969 5.3471875 -8.41195312 4.7490625 -7.65625 4.1328125 C-6.96660156 3.5759375 -6.27695313 3.0190625 -5.56640625 2.4453125 C-4.95152344 1.94 -4.33664063 1.4346875 -3.703125 0.9140625 C-1.87890625 -0.0546875 -1.87890625 -0.0546875 0 0 Z " fill="#FDE25B" transform="translate(151.87890625,400.0546875)"/>
<path d="M0 0 C3.33376285 1.49866403 5.93097416 3.43373036 8.75 5.75 C12.55093575 8.86395181 16.41478022 11.75712727 20.50390625 14.48046875 C22.49259932 16.50031628 22.66113076 18.23798359 23 21 C22.46632812 21.4125 21.93265625 21.825 21.3828125 22.25 C16.28596636 26.20049666 11.24918316 30.21282733 6.26171875 34.30078125 C4.2289407 35.82799792 2.31065556 36.95835436 0 38 C-2.19080713 36.32087798 -4.37071578 34.6310567 -6.53515625 32.91796875 C-8.03186943 31.7533314 -9.55523109 30.62064321 -11.12109375 29.55078125 C-13.96642845 27.48628684 -15.66650836 26.00376055 -16.79296875 22.61328125 C-17.45293897 18.24179533 -17.50723127 15.94983933 -15.375 11.95703125 C-12.78558775 8.73304264 -10.30556435 6.87864268 -6.8125 4.6875 C-5.74644531 4.01074219 -4.68039063 3.33398438 -3.58203125 2.63671875 C-2.30392578 1.82654297 -2.30392578 1.82654297 -1 1 C-0.67 0.67 -0.34 0.34 0 0 Z " fill="#FCE15B" transform="translate(119,110)"/>
<path d="M0 0 C3.40398495 1.77029073 5.59470223 3.41743925 7.5625 6.75 C7.49666738 10.50245951 7.37848805 12.81312483 4.875 15.6875 C1.8566394 17.07431433 -0.14720079 17.1612874 -3.4375 16.75 C-4.78539347 15.76971384 -6.11962715 14.77028865 -7.4375 13.75 C-10.34113 13.32507854 -11.78809867 13.3603592 -14.3125 14.875 C-15.72286955 16.82474484 -15.72286955 16.82474484 -15.25 19.8125 C-14.67101637 22.84515868 -14.67101637 22.84515868 -12.4375 24.75 C-12.11066064 28.27986508 -12.08375996 30.88775866 -13.4375 34.1875 C-15.98294755 36.1761309 -18.1646 36.48556199 -21.3671875 36.34375 C-25.26146004 35.22690203 -27.37409406 32.08429264 -29.4375 28.75 C-31.49394852 22.58065443 -31.69566033 15.12590347 -29.4140625 9.00390625 C-22.73253388 -1.94124975 -11.5433235 -5.40254385 0 0 Z " fill="#020403" transform="translate(405.4375,296.25)"/>
<path d="M0 0 C3.40398495 1.77029073 5.59470223 3.41743925 7.5625 6.75 C7.49666738 10.50245951 7.37848805 12.81312483 4.875 15.6875 C1.8566394 17.07431433 -0.14720079 17.1612874 -3.4375 16.75 C-4.78539347 15.76971384 -6.11962715 14.77028865 -7.4375 13.75 C-10.34113 13.32507854 -11.78809867 13.3603592 -14.3125 14.875 C-15.71798262 16.81585826 -15.71798262 16.81585826 -15.25 19.75 C-14.56775087 22.89901583 -14.56775087 22.89901583 -12.4375 25.75 C-12.09363558 28.98232558 -12.17251245 31.12065456 -13.4375 34.125 C-15.9760398 36.18756359 -18.12600661 36.48727093 -21.3671875 36.34375 C-25.26146004 35.22690203 -27.37409406 32.08429264 -29.4375 28.75 C-31.49394852 22.58065443 -31.69566033 15.12590347 -29.4140625 9.00390625 C-22.73253388 -1.94124975 -11.5433235 -5.40254385 0 0 Z " fill="#020403" transform="translate(318.4375,383.25)"/>
<path d="M0 0 C0.1959375 1.02996094 0.391875 2.05992187 0.59375 3.12109375 C5.37925791 26.5567431 18.6778378 48.61770963 34.2734375 66.625 C36.91059394 70.25258171 36.29618593 72.63125755 36 77 C35.73227783 76.41554108 35.46455566 75.83108215 35.1887207 75.22891235 C31.08968873 67.54301694 23.53229012 61.53572781 17.3125 55.6015625 C15.46073951 53.80623343 13.61052337 52.00931034 11.76171875 50.2109375 C8.87361983 47.40315936 5.98163624 44.60183226 3.05712891 41.83203125 C0.21621241 39.13993711 -2.57960794 36.40342466 -5.375 33.6640625 C-6.69504028 32.43388901 -6.69504028 32.43388901 -8.04174805 31.17886353 C-13.79291575 25.45693339 -13.79291575 25.45693339 -14.38037109 21.32391357 C-13.75367238 13.32158013 -10.18654295 7.72806663 -4.25 2.5 C-1.19148936 0 -1.19148936 0 0 0 Z " fill="#81D7B4" transform="translate(365,179)"/>
<path d="M0 0 C1.71484375 1.1796875 1.71484375 1.1796875 3 3 C4.30013677 10.11824881 3.17572847 16.50037858 -0.38671875 22.7421875 C-4.78835916 28.90235253 -10.49351331 33.47140635 -18 35 C-22.67655531 35.56514264 -26.49983293 35.89295659 -30.625 33.4375 C-32.54211763 30.03897329 -32.54861638 27.84031465 -32 24 C-30.625 21.6875 -30.625 21.6875 -28 20 C-25.48445859 19.38156125 -23.00433802 18.93808854 -20.4375 18.58984375 C-17.55010464 17.89113109 -16.08452465 17.1217483 -14 15 C-13.23490754 12.41428316 -13.23490754 12.41428316 -13 9.5625 C-12.47934402 6.22677189 -12.13566142 4.22436311 -10.375 1.3125 C-6.69241729 -0.7226115 -4.18677871 -0.46519763 0 0 Z " fill="#020403" transform="translate(378,353)"/>
</svg>
